<svg width="20" height="21" viewBox="0 0 20 21" fill="none" xmlns="http://www.w3.org/2000/svg">
<path d="M10.0001 6.00513H11.0001V5.00513H10.0001V6.00513ZM14.0001 4.00513C13.4478 4.00513 13.0001 4.45284 13.0001 5.00513C13.0001 5.55741 13.4478 6.00513 14.0001 6.00513V4.00513ZM15.0001 6.00513C15.5523 6.00513 16.0001 5.55741 16.0001 5.00513C16.0001 4.45284 15.5523 4.00513 15.0001 4.00513V6.00513ZM14.0001 9.00513C13.4478 9.00513 13.0001 9.45284 13.0001 10.0051C13.0001 10.5574 13.4478 11.0051 14.0001 11.0051V9.00513ZM15.0001 11.0051C15.5523 11.0051 16.0001 10.5574 16.0001 10.0051C16.0001 9.45284 15.5523 9.00513 15.0001 9.00513V11.0051ZM5.00006 9.00513C4.44778 9.00513 4.00006 9.45284 4.00006 10.0051C4.00006 10.5574 4.44778 11.0051 5.00006 11.0051V9.00513ZM6.00006 11.0051C6.55235 11.0051 7.00006 10.5574 7.00006 10.0051C7.00006 9.45284 6.55235 9.00513 6.00006 9.00513V11.0051ZM14.0001 14.0051C13.4478 14.0051 13.0001 14.4528 13.0001 15.0051C13.0001 15.5574 13.4478 16.0051 14.0001 16.0051V14.0051ZM15.0001 16.0051C15.5523 16.0051 16.0001 15.5574 16.0001 15.0051C16.0001 14.4528 15.5523 14.0051 15.0001 14.0051V16.0051ZM5.00006 14.0051C4.44778 14.0051 4.00006 14.4528 4.00006 15.0051C4.00006 15.5574 4.44778 16.0051 5.00006 16.0051V14.0051ZM6.00006 16.0051C6.55235 16.0051 7.00006 15.5574 7.00006 15.0051C7.00006 14.4528 6.55235 14.0051 6.00006 14.0051V16.0051ZM11.0001 3.00513C11.0001 2.45284 11.4478 2.00513 12.0001 2.00513V0.00512695C10.3432 0.00512695 9.00006 1.34827 9.00006 3.00513H11.0001ZM12.0001 2.00513H17.0001V0.00512695H12.0001V2.00513ZM17.0001 2.00513C17.5523 2.00513 18.0001 2.45284 18.0001 3.00513H20.0001C20.0001 1.34827 18.6569 0.00512695 17.0001 0.00512695V2.00513ZM18.0001 3.00513V17.0051H20.0001V3.00513H18.0001ZM18.0001 17.0051C18.0001 17.5574 17.5523 18.0051 17.0001 18.0051V20.0051C18.6569 20.0051 20.0001 18.662 20.0001 17.0051H18.0001ZM17.0001 18.0051H10.0001V20.0051H17.0001V18.0051ZM11.0001 19.0051V3.00513H9.00006V19.0051H11.0001ZM3.00006 7.00513H10.0001V5.00513H3.00006V7.00513ZM9.00006 6.00513V19.0051H11.0001V6.00513H9.00006ZM10.0001 18.0051H3.00006V20.0051H10.0001V18.0051ZM2.00006 17.0051V8.00513H6.10352e-05V17.0051H2.00006ZM3.00006 18.0051C2.44778 18.0051 2.00006 17.5574 2.00006 17.0051H6.10352e-05C6.10352e-05 18.662 1.34321 20.0051 3.00006 20.0051V18.0051ZM3.00006 5.00513C1.34321 5.00513 6.10352e-05 6.34827 6.10352e-05 8.00513H2.00006C2.00006 7.45284 2.44778 7.00513 3.00006 7.00513V5.00513ZM14.0001 6.00513H15.0001V4.00513H14.0001V6.00513ZM14.0001 11.0051H15.0001V9.00513H14.0001V11.0051ZM5.00006 11.0051H6.00006V9.00513H5.00006V11.0051ZM14.0001 16.0051H15.0001V14.0051H14.0001V16.0051ZM5.00006 16.0051H6.00006V14.0051H5.00006V16.0051Z" fill="#A1A3C0"/>
</svg>
